<?xml version="1.0" encoding="iso-8859-1"?>
<!-- Generator: Adobe Illustrator 19.0.0, SVG Export Plug-In . SVG Version: 6.00 Build 0)  -->
<svg version="1.1" id="Capa_1" xmlns="http://www.w3.org/2000/svg" xmlns:xlink="http://www.w3.org/1999/xlink" x="0px" y="0px"
	 viewBox="0 0 472 472" style="enable-background:new 0 0 472 472;" xml:space="preserve">
<path style="fill:#0378A3;" d="M212,360h200c8.837,0,16-7.163,16-16V16c0-8.837-7.163-16-16-16H204c-8.837,0-16,7.163-16,16v216"/>
<path style="fill:#ECC19C;" d="M156,400c55.448-18.48,89.504-66.248,80.616-124L236,272l65.192-72.056
	c4.391-5.125,6.806-11.651,6.808-18.4v-1.248c0.004-15.623-12.657-28.292-28.28-28.296c-0.003,0-0.005,0-0.008,0
	c-7.502,0.001-14.697,2.982-20,8.288L156,264l32-32V112l-84.888,65.16c-7.122,4.384-12.245,11.382-14.272,19.496L45.912,368.36
	c-1.271,5.075-1.913,10.288-1.912,15.52V472h128v-8l36.128-13.552c18.154-6.808,33.822-18.951,44.944-34.832L292,360h-80"/>
<circle style="fill:#F8CF26;" cx="356" cy="104" r="32"/>
<circle style="fill:#FF0000;" cx="356" cy="64" r="32"/>
<g>
	<path style="fill:#29485A;" d="M212,40h16v120h-16V40z"/>
	<path style="fill:#29485A;" d="M244,48h16v80h-16V48z"/>
	<path style="fill:#29485A;" d="M300,232h16v32h-16V232z"/>
	<path style="fill:#29485A;" d="M300,280h16v40h-16V280z"/>
	<path style="fill:#29485A;" d="M356,168h16v160h-16V168z"/>
	<path style="fill:#29485A;" d="M388,168h16v160h-16V168z"/>
</g>
<g>
</g>
<g>
</g>
<g>
</g>
<g>
</g>
<g>
</g>
<g>
</g>
<g>
</g>
<g>
</g>
<g>
</g>
<g>
</g>
<g>
</g>
<g>
</g>
<g>
</g>
<g>
</g>
<g>
</g>
</svg>
