<?xml version="1.0" encoding="iso-8859-1"?>
<!-- Generator: Adobe Illustrator 19.0.0, SVG Export Plug-In . SVG Version: 6.00 Build 0)  -->
<svg version="1.1" id="Capa_1" xmlns="http://www.w3.org/2000/svg" xmlns:xlink="http://www.w3.org/1999/xlink" x="0px" y="0px"
	 viewBox="0 0 512 512" style="enable-background:new 0 0 512 512;" xml:space="preserve">
<path style="fill:#FF8800;" d="M56.644,345.602H14.86v-37.89c0-23.04,18.744-41.784,41.784-41.784s41.783,18.744,41.783,41.784h-30
	c0-6.498-5.286-11.784-11.783-11.784c-6.498,0-11.784,5.286-11.784,11.784v7.89h11.784V345.602z"/>
<path style="fill:#FFA900;" d="M66.789,310.17c0-94.654,88.983-171.386,198.749-171.386c28.205,0,55.036,5.069,79.338,14.205
	l55.383-28.973l5.374,64.608c20.761,17.798,36.995,39.519,47.064,63.772l44.443,12.15v91.249l-44.443,12.15
	c-12.409,29.889-34.174,55.939-62.248,75.528L378.264,512h-64.408l-4.315-34.666c-14.155,2.759-28.88,4.221-44.003,4.221
	c-16.587,0-32.694-1.763-48.097-5.064L211.126,512h-64.407l-8.767-70.43C94.455,410.132,66.789,362.94,66.789,310.17z"/>
<path style="fill:#FF8800;" d="M265.538,138.784c28.205,0,55.036,5.069,79.338,14.205l55.383-28.973l5.374,64.608
	c20.761,17.798,36.995,39.519,47.064,63.772l44.443,12.15v91.249l-44.443,12.15c-12.409,29.889-34.174,55.939-62.248,75.528
	L378.264,512h-64.408l-4.315-34.666c-14.155,2.759-28.88,4.221-44.003,4.221L265.538,138.784L265.538,138.784z"/>
<circle style="fill:#333333;" cx="367.5" cy="269.51" r="15"/>
<rect x="212.1" y="195.97" style="fill:#4D4D4D;" width="106.88" height="30"/>
<rect x="265.54" y="195.97" style="fill:#333333;" width="53.44" height="30"/>
<circle style="fill:#FFDB0C;" cx="265.54" cy="53.739" r="53.739"/>
<path style="fill:#FBBF00;" d="M319.277,53.739c0,29.679-24.06,53.739-53.739,53.739V0C295.217,0,319.277,24.06,319.277,53.739z"/>
<g>
</g>
<g>
</g>
<g>
</g>
<g>
</g>
<g>
</g>
<g>
</g>
<g>
</g>
<g>
</g>
<g>
</g>
<g>
</g>
<g>
</g>
<g>
</g>
<g>
</g>
<g>
</g>
<g>
</g>
</svg>
