<svg
        xmlns="http://www.w3.org/2000/svg"
        viewBox="0 0 20 20"
        width="20px" height="20px">
    <path fill-rule="evenodd"  fill="rgb(54, 175, 56)"
          d="M8.997,8.991 L8.997,0.993 C8.997,0.441 9.445,-0.007 9.998,-0.007 C10.551,-0.007 10.999,0.441 10.999,0.993 L10.999,8.991 C10.999,9.544 10.551,9.991 9.998,9.991 C9.445,9.991 8.997,9.544 8.997,8.991 ZM14.652,1.138 C13.904,0.745 13.002,1.272 13.002,2.116 C13.002,2.545 13.258,2.918 13.637,3.119 C16.421,4.595 18.208,7.708 17.698,11.166 C17.192,14.593 14.337,17.333 10.889,17.718 C6.199,18.241 2.212,14.572 2.212,9.991 C2.212,6.996 3.916,4.392 6.407,3.094 C6.758,2.911 6.995,2.565 6.995,2.169 L6.995,2.077 C6.995,1.249 6.111,0.739 5.376,1.122 C1.848,2.959 -0.447,6.833 0.056,11.182 C0.583,15.732 4.293,19.419 8.851,19.926 C14.894,20.597 20.009,15.890 20.009,9.991 C20.009,6.148 17.837,2.811 14.652,1.138 Z"/>
</svg>