<?xml version="1.0" encoding="iso-8859-1"?>
<!-- Generator: Adobe Illustrator 19.0.0, SVG Export Plug-In . SVG Version: 6.00 Build 0)  -->
<svg version="1.1" id="Capa_1" xmlns="http://www.w3.org/2000/svg" xmlns:xlink="http://www.w3.org/1999/xlink" x="0px" y="0px"
	 viewBox="0 0 490.338 490.338" style="enable-background:new 0 0 490.338 490.338;" xml:space="preserve">
<g>
	<g>
		<g>
			<path d="M406.5,168.069v-43H78.3v226h118.6v2.3c0,7.1,5.8,12.9,12.9,12.9h65.1c7.1,0,12.9-5.8,12.9-12.9v-2.3h118.7v-12.6
				c8.9-0.1,17.5-3.6,23.9-10l4.1-4.1l15,14.9c1.1,1.1,2.2,2,3.4,2.9v8.8h1.6h30.3v23.2c0,20.7-16.8,37.5-37.5,37.5h-35.9H73.5h-36
				c-20.7,0-37.5-16.8-37.5-37.5v-23.1h30.3h1.6v-238.4c0-18.8,15.2-34,34-34h352.9c18.8,0,34,15.2,34,34v71.1L406.5,168.069z
				 M489.6,295.269l-35.3-35.2c-1.1-1.1-1.1-2.8,0-3.9l23.6-23.5c1.4-1.4,0.9-3.9-1-4.5l-99.2-33.8c-4.1-1.4-8.1,2.6-6.7,6.7
				l33.8,99c0.7,1.9,3.1,2.5,4.5,1l23.3-23.3c1.1-1.1,2.8-1.1,3.8,0l35.3,35.3c1.1,1.1,2.8,1.1,3.8,0l14-14
				C490.6,298.069,490.6,296.369,489.6,295.269z M165.2,307.869c3.2,0,6.3,0,9.5,0c2.7,0,4.1-1.4,4.1-4.1s0-5.9,0-8.6s1.4-4.1,4.1-5
				c6.3-1.8,11.8-5.4,16.3-10.4c11.8-14.5,7.2-35.8-9.1-45.3c-5.4-2.7-11.3-5-16.8-7.2c-3.2-1.4-6.3-2.7-9.1-5
				c-5.4-4.5-4.5-11.3,1.8-14c1.8-0.5,3.6-0.9,5.4-0.9c7.2-0.5,14,0.9,20.8,4.1c3.2,1.8,4.5,1.4,5.4-2.3c0.9-3.6,2.3-7.2,3.2-10.9
				c0.5-2.3-0.5-4.1-2.7-5c-4.1-1.8-8.6-3.2-13.1-4.1c-5.9-0.9-5.9-0.9-5.9-6.8c0-8.6,0-8.6-8.6-8.6c-1.4,0-2.3,0-3.6,0
				c-3.6,0.5-4.5,0.9-4.5,5c0,1.8,0,3.6,0,5.4c0,5,0,5-5,6.8c-12.2,4.5-19.9,13.1-20.8,26.3c-0.5,11.8,5.4,19.5,15.4,25.4
				c5.9,3.6,12.7,5.9,19,8.6c2.3,0.9,4.5,2.3,6.8,4.1c6.3,5,5,13.1-2.3,16.3c-4.1,1.8-8.1,2.3-12.2,1.8c-6.3-0.9-12.7-2.3-18.6-5.4
				c-3.2-1.8-4.1-1.4-5.4,2.3c-0.9,3.2-1.8,6.3-2.7,9.5c-1.4,4.1-0.9,5.4,3.2,7.2c5.4,2.7,10.9,4.1,16.8,5c4.5,0.5,4.5,0.9,4.5,5.4
				c0,2.3,0,4.1,0,6.3C161.2,306.069,162.5,307.869,165.2,307.869z M345.9,274.069H242.1c-2.1,0-3.7,1.7-3.7,3.7v13.1
				c0,2.1,1.7,3.7,3.7,3.7h103.8c2.1,0,3.7-1.7,3.7-3.7v-13.1C349.6,275.669,347.9,274.069,345.9,274.069z M349.6,234.269
				c0-2.1-1.7-3.7-3.7-3.7H242.1c-2.1,0-3.7,1.7-3.7,3.7v13.1c0,2.1,1.7,3.7,3.7,3.7h103.8c2.1,0,3.7-1.7,3.7-3.7L349.6,234.269
				L349.6,234.269z M349.6,190.769c0-2.1-1.7-3.7-3.7-3.7H242.1c-2.1,0-3.7,1.7-3.7,3.7v13.1c0,2.1,1.7,3.7,3.7,3.7h103.8
				c2.1,0,3.7-1.7,3.7-3.7L349.6,190.769L349.6,190.769z"/>
		</g>
	</g>
</g>
<g>
</g>
<g>
</g>
<g>
</g>
<g>
</g>
<g>
</g>
<g>
</g>
<g>
</g>
<g>
</g>
<g>
</g>
<g>
</g>
<g>
</g>
<g>
</g>
<g>
</g>
<g>
</g>
<g>
</g>
</svg>
